<svg width="176" height="183" viewBox="0 0 176 183" fill="none" xmlns="http://www.w3.org/2000/svg">
<path d="M176 0V183H0L105.314 109.354C108.262 107.298 110.66 104.612 112.312 101.515C113.964 98.4169 114.824 94.9934 114.824 91.5215C114.824 88.0495 113.964 84.6261 112.312 81.5283C110.66 78.4306 108.262 75.7453 105.314 73.6895L0 0H176ZM0 41.5459C6.66211 41.5257 13.2628 42.7558 19.4219 45.166C25.5812 47.5764 31.1777 51.1197 35.8887 55.5908C40.5997 60.0619 44.3323 65.3731 46.8721 71.2188C49.4118 77.0644 50.7088 83.3293 50.6875 89.6523C50.6784 95.9568 49.3588 102.197 46.8057 108.018C44.2523 113.838 40.5146 119.123 35.8066 123.571C31.0987 128.019 25.5133 131.543 19.3691 133.939C13.2249 136.336 6.64291 137.559 0 137.539V41.5459Z" fill="#F59F23"/>
</svg>
